<svg width="1614" height="1244" viewBox="0 0 1614 1244" fill="none" xmlns="http://www.w3.org/2000/svg">
<path d="M143.872 479.99C177.85 475.87 212.7 470.38 246.98 470.37C395.91 470.34 465.88 569.13 574.69 648.69C599.3 666.68 626.06 684.37 653.42 697.82C667.69 704.83 683.33 709.49 697.23 717C741.89 727.33 774 736.25 821.1 734.94C862.34 733.8 904.01 725.48 943.15 712.59C1022.51 686.46 1125.48 629.75 1206.55 622.89C1229.53 620.95 1252.55 623.67 1274.75 629.7C1323.24 642.88 1389.49 683.8 1414.71 728.08C1387.79 720.63 1372.58 709.33 1342.37 704.81C1321.44 704.18 1300.7 703.72 1279.82 705.9C1200.21 714.22 1122.3 747.19 1049.04 777.78C1007.78 793.71 964.37 811.66 921.37 822.01C891.47 834.98 825.23 841.5 793.76 840.19C664.95 834.81 556.07 757.61 463.89 673.79C413.24 627.74 365.38 578.88 307.46 541.67C281.36 524.91 250.03 510.4 220.34 501.4C194.98 493.71 168.99 488.61 143.872 479.99Z" fill="#FBF0F0"/>
<path d="M697.23 717C741.89 727.33 774 736.25 821.1 734.94C862.34 733.8 904.01 725.48 943.15 712.59C1022.51 686.46 1125.48 629.75 1206.55 622.89C1229.53 620.95 1252.55 623.67 1274.75 629.7C1323.24 642.88 1389.49 683.8 1414.71 728.08C1387.79 720.63 1372.58 709.33 1342.37 704.81C1335.41 700.71 1325.37 701.82 1317.39 700.63C1329.65 700.2 1341 698.53 1352.68 702.82C1364.65 707.22 1372.65 704.65 1386.19 712.27C1389.98 714.4 1393.83 716.44 1397.64 718.54L1398.55 717.75C1388.23 698.39 1358.35 671.23 1337.84 662.68L1335.18 665.54C1321.87 660.22 1310.3 650.95 1296.75 645.61C1245.51 625.44 1199.64 628.57 1147.52 643.13C1137.16 646.02 1125.39 648.24 1115.58 652.4C1115.04 652.62 1114.52 652.89 1113.98 653.11C1088.18 663.83 1061.32 672.09 1035.58 682.93C1016.66 690.9 996.98 703.59 976.96 708.23C972.74 709.21 969.03 711.43 964.74 712.1C962.18 712.5 960.43 713.64 958.2 714.89L956.23 714.39C958.63 711.8 965.71 710.56 966.62 709.08C959.87 707.86 949.77 714.99 943.87 718.35L945.37 718.18C923.17 728.33 901.03 733.01 877.11 737.14C821.95 746.67 788.43 746.21 734.61 730.87C725.69 728.33 716.19 726.69 707.49 723.53C703.98 722.26 700.48 721.12 697.59 718.7L697.23 717Z" fill="#EFE9E9"/>
<path d="M921.37 822.01L917.58 820.39L918.24 819.03C926.83 816.24 940 810.06 948.74 810.05C951.67 810.05 949.4 810.57 952.66 809.33C948.38 807.31 942.36 808.48 937.62 808.76L937.84 807.97C974.58 798.04 1008.5 781.89 1044.68 770.85L1042.37 773.25L1049.04 777.78C1007.78 793.71 964.37 811.66 921.37 822.01Z" fill="#FAF6F6"/>
<path d="M93.9302 576.31L120.634 577.13C253.13 582.52 329.26 615.93 418.86 713.13C502.18 803.52 560.31 853.87 683.17 885.4C734.03 897.32 790.09 900.69 841.77 892.19C862.87 888.71 883.35 881.8 904.72 880.16L907.56 879.92C908.13 879.88 908.7 879.85 909.27 879.81C886.92 896.82 854.84 917.89 829.6 929.56C788.25 962.79 690.84 982.67 638.53 976.83C633.05 976.22 627.87 975.42 622.58 973.82C592.27 972.94 537.26 952.81 514.09 933.99C489.37 925.54 451.22 887.33 431.77 868.8C415.01 847.65 395.49 827.56 377.72 807.16C318.92 739.65 259.76 671.77 183.72 622.93C155.544 604.82 123.978 591.06 93.9302 576.31Z" fill="#FBF0F0"/>
<path d="M93.9302 576.31L120.634 577.13C130.066 580.24 137.237 585.9 146.085 590.16C168.08 600.74 188.88 611.5 208.65 626.03C222.22 636.01 234.67 648.62 247.14 659.98C281.52 691.31 314.09 723.68 345.59 757.92C357.78 771.18 369.12 785.2 381.48 798.31C391.74 809.19 435.34 852.13 439.02 862.01C439.27 862.67 439.27 863.39 439.39 864.08C435.57 865.53 434.46 865.57 431.77 868.8C415.01 847.65 395.49 827.56 377.72 807.16C318.92 739.65 259.76 671.77 183.72 622.93C155.544 604.82 123.978 591.06 93.9302 576.31Z" fill="#FAF6F6"/>
<path d="M683.17 885.4C734.03 897.32 790.09 900.69 841.77 892.19C862.87 888.71 883.35 881.8 904.72 880.16L907.56 879.92C908.13 879.88 908.7 879.85 909.27 879.81C886.92 896.82 854.84 917.89 829.6 929.56C829.36 928.74 828.64 927.93 828.9 927.12C830.8 921.11 875.93 903.07 883.32 889.54C876.49 887.72 862.41 892.26 855 893.72L858.07 896.71L857.18 898.9C844.2 902.74 830.27 901.72 816.84 904.96C798.95 909.26 759 905.88 740.28 902.25C729.19 900.1 718.5 896.44 707.37 894.22C698.58 892.47 684.96 891.66 677.42 887.15L683.17 885.4Z" fill="#EFE9E9"/>
<path d="M514.09 933.99L517.69 933.15C518.12 933.41 518.54 933.69 518.98 933.95C525.62 937.95 531.94 937.43 539.11 939.82C552.93 944.43 565.59 952.35 579.73 955.84C594.55 959.5 620.4 961.44 632.78 968.13L628.3 971.07C631.08 972.87 633.17 973.13 636.38 973.79L637.37 973.34C632.45 973.42 627.48 973.33 622.58 973.82C592.27 972.94 537.26 952.81 514.09 933.99Z" fill="#FAF6F6"/>
<path d="M321.74 371.78C377.44 373.28 439.59 380.92 490.29 404.58C518.76 415.86 545.6 437.67 568.83 457.45C653.2 529.26 695.51 583.28 809.12 615.36C848.71 623.31 890.39 624.64 930.2 617.34C948.81 613.94 967.19 608.08 986.12 606.9C963.24 626.27 932.58 641.22 904.37 651.5C878.63 666.89 841.96 673.01 812.44 674.6C692.87 681.07 604.46 609.57 525.66 528.98C503.6 506.41 482.43 482.56 459.56 460.82C445.84 447.75 431.06 435.83 415.39 425.19C406.04 418.9 395.2 413.56 386.88 406.04C364.77 395.56 342.17 385.33 321.74 371.78Z" fill="#FBF0F0"/>
<path d="M809.12 615.36C848.71 623.31 890.39 624.64 930.2 617.34C948.81 613.94 967.19 608.08 986.12 606.9C963.24 626.27 932.58 641.22 904.37 651.5L901.32 650.96C903.67 642.5 948.18 632.64 953.66 621.01L952.11 619.58C943.27 623.91 938.44 622.45 929 621.49L928.84 622.35L933.46 625.14L931.03 627.49C881.71 639.5 849.91 629.07 803.17 618.3L802.93 616.51L809.12 615.36Z" fill="#EFE9E9"/>
<path d="M321.74 371.78C377.44 373.28 439.59 380.92 490.29 404.58L489.22 407.13C467.66 407.79 445.32 392.18 423.42 394.12C421.16 394.32 422.14 394.31 419.79 393.33C403.72 386.63 383.9 389.44 367.59 383.12C371.84 381.28 377.13 381.59 381.71 381.33C373.54 380.5 361.87 377.71 355.06 383.25L354.18 385.94C364.53 392.29 378.69 396.02 387.58 403.66L386.88 406.04C364.77 395.56 342.17 385.33 321.74 371.78Z" fill="#EFE9E9"/>
<path d="M1206.2 818.55C1222.26 785.04 1258.09 765.71 1294.92 770.7C1331.74 775.69 1361.14 803.85 1367.71 840.42C1374.28 876.99 1356.52 913.63 1323.73 931.12C1290.95 948.61 1250.63 942.96 1223.91 917.14C1197.4 891.52 1190.26 851.8 1206.2 818.55Z" fill="#FAF6F6"/>
<path d="M1223.91 917.14C1197.4 891.52 1190.26 851.8 1206.2 818.55C1207.11 820.64 1207.96 821.32 1207.35 823.58C1201.12 846.78 1201.37 866.58 1213.62 887.43C1218.42 895.6 1224.91 909.72 1232.91 914.77L1233.08 916.78C1230.61 916.72 1229.35 916.42 1227.06 915.66L1223.91 917.14Z" fill="#EFE9E9"/>
<path d="M1279.33 796.64C1287.72 796.08 1295.1 798.76 1302.43 802.7C1316.25 810.12 1330.5 823.68 1334.57 839.31C1336.73 847.61 1334.06 853.93 1330.1 861.14C1329.2 860.84 1328.26 860.63 1327.4 860.22C1320.97 857.15 1278.66 809.13 1277.04 803.03C1276.34 800.4 1278.08 798.86 1279.33 796.64Z" fill="black"/>
<path d="M1171.75 316.03C1173.68 316.19 1175.21 316.64 1177.06 317.18C1176.95 317.6 1176.91 318.04 1176.74 318.44C1173.73 325.55 1130.67 350.2 1121.68 358.8C1097.76 381.66 1080.19 409.01 1060.31 435.18C1023.54 483.59 970.51 531.28 913.43 553.32C871.07 569.67 832.92 568.94 791.64 550.58C782.65 546.04 774.26 540.75 765.76 535.37C842.45 528.41 896.8 518.44 955.02 462.63C974.06 444.39 991.1 423.75 1009.67 404.95C1028.97 385.39 1048.82 365.24 1072.55 351.06C1102.89 332.93 1138.79 327.72 1171.75 316.03Z" fill="#FAF6F6"/>
<path d="M1237.8 404.69C1243.3 392.93 1252.83 380.97 1260.64 370.59C1299.59 318.8 1340.39 298.626 1399.81 276.644C1390.19 286.239 1380.16 295.421 1369.75 304.17C1328.13 343.11 1310.92 395.99 1282.9 444.16C1242.76 513.16 1169.36 581.98 1084.67 578.99C1073.68 578.6 1042.54 577.8 1034.54 569.8C1034.19 569.44 1033.94 569 1033.64 568.6C1034.34 565.67 1034.58 566.01 1037.08 564.44C1048.06 557.52 1062.26 554.12 1074.53 549.89C1108.89 538.04 1141.13 523.17 1168.11 498.36C1183.01 484.66 1194.84 468.25 1205.97 451.43C1213.14 440.59 1228.91 411.54 1237.8 404.69Z" fill="#FAF6F6"/>
<path d="M1237.8 404.69C1243.3 392.93 1252.83 380.97 1260.64 370.59C1299.59 318.8 1340.39 298.626 1399.81 276.644C1390.19 286.239 1380.16 295.421 1369.75 304.17L1363.73 304.78C1364.09 300.922 1367.6 299.996 1367.85 294.906C1360.52 303.22 1350.53 299.928 1342.4 305.83C1346.75 305.15 1349.45 303.89 1353.53 305.86C1349.06 312.66 1317.83 325.64 1308.66 331.58C1302.93 335.29 1297.32 339.52 1292.55 344.41C1282.44 354.76 1248.13 402.12 1239.13 404.54C1238.7 404.65 1238.25 404.64 1237.8 404.69Z" fill="#EFE9E9"/>
<path d="M780.2 331.49C797.61 300.781 833.07 285.095 867.5 292.874C901.93 300.652 927.2 330.06 929.72 365.27C932.23 400.47 911.4 433.18 878.42 445.77C845.45 458.36 808.12 447.88 786.52 419.96C766.78 394.44 764.29 359.56 780.2 331.49Z" fill="#FBF0F0"/>
<path d="M780.2 331.49C785.65 343.84 773.92 356.94 774.4 369.85C774.88 382.85 780.55 394.23 785.56 405.94C787.59 410.69 789.38 413.04 787.34 418.13C787.09 418.75 786.8 419.35 786.52 419.96C766.78 394.44 764.29 359.56 780.2 331.49Z" fill="#EFE9E9"/>
<path d="M851.15 314.8C859.7 315.38 868.05 317.31 875.5 321.65C887.8 328.82 900.9 341.85 904.04 356.23C905.35 362.25 904.41 365.89 901.19 370.96C899.9 372.99 897.92 372.7 895.67 373.22C887.29 367.92 882.07 358.99 874.87 352.23C864.34 342.35 845.18 331.9 838.1 319.84C841.8 316.29 846.32 315.84 851.15 314.8Z" fill="black"/>
<path d="M1054.06 857.46C1064.45 855 1074.17 856.73 1083.46 862.11C1095.74 869.23 1104.92 883.74 1108.03 897.37C1111.03 910.53 1107.76 923.79 1100.18 934.8C1091.9 946.84 1080.53 952.73 1066.23 954.81C1062.29 955.38 1058.91 954.95 1055.04 954.1C1050.52 952.04 1045.93 949.98 1041.76 947.27C1024.8 936.22 1017.71 922.36 1013.38 903.24C1020.84 879.6 1033.19 869.22 1054.06 857.46Z" fill="#FAF6F6"/>
<path d="M1013.38 903.24C1020.84 879.6 1033.19 869.22 1054.06 857.46L1061.25 858.6L1061.95 860.24C1045.15 868.94 1030.63 876.58 1023.96 895.87C1021.53 902.7 1021.99 910.23 1025.23 916.71C1036.22 938.62 1055.2 938.31 1067.81 951.53L1055.04 954.1C1050.52 952.04 1045.93 949.98 1041.76 947.27C1024.8 936.22 1017.71 922.36 1013.38 903.24Z" fill="#EFE9E9"/>
<path d="M682.61 441.42C676.86 444.92 671.36 448.62 664.32 448.21C652.94 447.56 643.03 439.85 635.52 431.92C627.26 423.21 618.33 411.16 619.16 398.59C620.01 385.78 628.83 371.54 638.42 363.34C647.22 355.82 659.08 351.35 670.73 352.79C683.83 354.42 695.24 363.29 702.68 373.82C709.6 383.62 713.74 395.77 711.43 407.79C709.26 419.04 701.15 428.49 692 434.93C689.01 437.4 686.27 439.97 682.61 441.42Z" fill="#FAF6F6"/>
<path d="M1359.2 505.2C1365.23 504.53 1370.74 504.38 1376.66 506C1388.46 509.24 1398.51 516.3 1404.21 527.28C1408.79 536.08 1409.43 545.98 1406.35 555.38C1401.72 569.53 1391.2 578.03 1378.57 584.67C1373.5 585.58 1368.69 586.47 1363.59 585.34C1351.99 582.76 1342.28 576.23 1336.23 565.93C1330.9 556.86 1328.81 546.16 1331.83 535.95C1336.08 521.61 1346.63 512.34 1359.2 505.2Z" fill="#FAF6F6"/>
<path d="M1243.57 190.97C1251.09 190.625 1256.6 192.1 1262.83 196.418C1272.4 203.055 1278.25 214.22 1280.06 225.563C1281.87 236.932 1278.77 250.034 1271.61 259.122C1266.09 266.139 1258.93 271.237 1249.98 272.228C1248.71 271.809 1247.45 271.374 1246.2 270.923C1231.76 265.69 1217.84 256.312 1211.49 241.79C1208.16 234.173 1207.75 225.689 1211.03 217.981C1217.07 203.788 1230.21 196.81 1243.57 190.97Z" fill="#FAF6F6"/>
<path d="M1031.41 213.015C1035.4 212.761 1039.51 212.655 1043.41 213.672C1054.04 216.445 1062.95 222.626 1068.02 232.478C1073.03 242.056 1073.68 253.329 1069.79 263.416C1064.81 276.656 1054.27 285.936 1041.64 291.604C1039.54 291.041 1037.46 290.408 1035.4 289.705C1021.96 285.001 1008.3 274.862 1002.56 261.481C999.22 253.701 999.07 245.196 1002.4 237.385C1007.62 225.146 1019.39 217.454 1031.41 213.015Z" fill="#FAF6F6"/>
</svg>
